<svg width="280" height="550" viewBox="0 0 280 550" xmlns="http://www.w3.org/2000/svg">
  <!-- Background -->
  <rect width="280" height="550" rx="20" fill="#2a1a3e"/>
  
  <!-- Studio setup -->
  <rect x="30" y="80" width="220" height="140" rx="15" fill="#1a1a1a" stroke="#333" stroke-width="2"/>
  <rect x="40" y="90" width="200" height="120" rx="10" fill="#000"/>
  
  <!-- Microphone -->
  <ellipse cx="140" cy="130" rx="8" ry="20" fill="#2a2a2a"/>
  <rect x="136" y="150" width="8" height="30" fill="#333"/>
  <ellipse cx="140" cy="180" rx="15" ry="5" fill="#2a2a2a"/>
  
  <!-- Sound waves -->
  <circle cx="140" cy="130" r="25" fill="none" stroke="#3ba7e7" stroke-width="2"/>
  <circle cx="140" cy="130" r="35" fill="none" stroke="#3ba7e7" stroke-width="1.5"/>
  <circle cx="140" cy="130" r="45" fill="none" stroke="#3ba7e7" stroke-width="1"/>
  
  <!-- Recording interface -->
  <rect x="50" y="240" width="180" height="100" rx="10" fill="#2a2a2a"/>
  
  <!-- Waveform display -->
  <rect x="60" y="275" width="2" height="30" fill="#3ba7e7"/>
  <rect x="65" y="270" width="2" height="40" fill="#3ba7e7"/>
  <rect x="70" y="280" width="2" height="20" fill="#3ba7e7"/>
  <rect x="75" y="265" width="2" height="50" fill="#3ba7e7"/>
  <rect x="80" y="278" width="2" height="24" fill="#3ba7e7"/>
  <rect x="85" y="272" width="2" height="36" fill="#3ba7e7"/>
  <rect x="90" y="282" width="2" height="16" fill="#3ba7e7"/>
  <rect x="95" y="268" width="2" height="44" fill="#3ba7e7"/>
  <rect x="100" y="285" width="2" height="10" fill="#3ba7e7"/>
  <rect x="105" y="274" width="2" height="32" fill="#3ba7e7"/>
  <rect x="110" y="266" width="2" height="48" fill="#3ba7e7"/>
  <rect x="115" y="279" width="2" height="22" fill="#3ba7e7"/>
  <rect x="120" y="271" width="2" height="38" fill="#3ba7e7"/>
  <rect x="125" y="283" width="2" height="14" fill="#3ba7e7"/>
  <rect x="130" y="276" width="2" height="28" fill="#3ba7e7"/>
  <rect x="135" y="269" width="2" height="42" fill="#3ba7e7"/>
  <rect x="140" y="281" width="2" height="18" fill="#3ba7e7"/>
  <rect x="145" y="273" width="2" height="34" fill="#3ba7e7"/>
  <rect x="150" y="267" width="2" height="46" fill="#3ba7e7"/>
  <rect x="155" y="284" width="2" height="12" fill="#3ba7e7"/>
  <rect x="160" y="277" width="2" height="26" fill="#3ba7e7"/>
  <rect x="165" y="264" width="2" height="52" fill="#3ba7e7"/>
  <rect x="170" y="280" width="2" height="20" fill="#3ba7e7"/>
  <rect x="175" y="275" width="2" height="30" fill="#3ba7e7"/>
  <rect x="180" y="286" width="2" height="8" fill="#3ba7e7"/>
  <rect x="185" y="272" width="2" height="36" fill="#3ba7e7"/>
  <rect x="190" y="268" width="2" height="44" fill="#3ba7e7"/>
  <rect x="195" y="282" width="2" height="16" fill="#3ba7e7"/>
  <rect x="200" y="278" width="2" height="24" fill="#3ba7e7"/>
  <rect x="205" y="270" width="2" height="40" fill="#3ba7e7"/>
  <rect x="210" y="285" width="2" height="10" fill="#3ba7e7"/>
  <rect x="215" y="274" width="2" height="32" fill="#3ba7e7"/>
  <rect x="220" y="266" width="2" height="48" fill="#3ba7e7"/>
  
  <!-- Control buttons -->
  <circle cx="80" cy="310" r="8" fill="#ff4444"/>
  <rect x="76" y="306" width="8" height="8" fill="white"/>
  
  <circle cx="110" cy="310" r="8" fill="#3ba7e7"/>
  <polygon points="107,307 107,313 113,310" fill="white"/>
  
  <circle cx="140" cy="310" r="8" fill="#44ff44"/>
  <circle cx="140" cy="310" r="3" fill="white"/>
  
  <circle cx="170" cy="310" r="8" fill="#ffaa00"/>
  <rect x="167" y="307" width="6" height="6" fill="white"/>
  
  <circle cx="200" cy="310" r="8" fill="#aa44ff"/>
  <polygon points="197,307 203,310 197,313" fill="white"/>
  
  <!-- Content creation tools -->
  <rect x="40" y="360" width="200" height="80" rx="10" fill="#2a2a2a"/>
  
  <!-- Timeline -->
  <rect x="50" y="370" width="180" height="4" fill="#333"/>
  <rect x="50" y="370" width="120" height="4" fill="#3ba7e7"/>
  <circle cx="170" cy="372" r="4" fill="#3ba7e7"/>
  
  <!-- Editing tools icons -->
  <rect x="60" y="385" width="15" height="15" rx="2" fill="#3ba7e7"/>
  <text x="67" y="395" text-anchor="middle" fill="white" font-size="8">✂</text>
  
  <rect x="85" y="385" width="15" height="15" rx="2" fill="#ff4444"/>
  <text x="92" y="395" text-anchor="middle" fill="white" font-size="8">🎵</text>
  
  <rect x="110" y="385" width="15" height="15" rx="2" fill="#44ff44"/>
  <text x="117" y="395" text-anchor="middle" fill="white" font-size="8">📝</text>
  
  <rect x="135" y="385" width="15" height="15" rx="2" fill="#ffaa00"/>
  <text x="142" y="395" text-anchor="middle" fill="white" font-size="8">🎨</text>
  
  <rect x="160" y="385" width="15" height="15" rx="2" fill="#aa44ff"/>
  <text x="167" y="395" text-anchor="middle" fill="white" font-size="8">⚡</text>
  
  <rect x="185" y="385" width="15" height="15" rx="2" fill="#00aaff"/>
  <text x="192" y="395" text-anchor="middle" fill="white" font-size="8">📤</text>
  
  <!-- Progress indicator -->
  <rect x="50" y="415" width="180" height="15" rx="7" fill="#333"/>
  <rect x="50" y="415" width="135" height="15" rx="7" fill="#3ba7e7"/>
  <text x="140" y="425" text-anchor="middle" fill="white" font-size="10">75% Complete</text>
  
  <!-- Title -->
  <text x="140" y="50" text-anchor="middle" fill="white" font-size="14" font-weight="bold">Podcast Content</text>
  <text x="140" y="65" text-anchor="middle" fill="#3ba7e7" font-size="12">Creation Studio</text>
  
  <!-- Quality badge -->
  <rect x="60" y="460" width="160" height="40" rx="20" fill="#3ba7e7" opacity="0.2"/>
  <text x="140" y="475" text-anchor="middle" fill="#3ba7e7" font-size="10">✨ Human-Edited Quality</text>
  <text x="140" y="490" text-anchor="middle" fill="white" font-size="9">No AI Artifacts</text>
</svg>